<?xml version="1.0" standalone="no"?>
<!DOCTYPE svg PUBLIC "-//W3C//DTD SVG 20010904//EN"
 "http://www.w3.org/TR/2001/REC-SVG-20010904/DTD/svg10.dtd">
<svg version="1.0" xmlns="http://www.w3.org/2000/svg"
 width="1024.000000pt" height="250.000000pt" viewBox="0 0 1024.000000 250.000000"
 preserveAspectRatio="xMidYMid meet">
<metadata>
Created by potrace 1.15, written by Peter Selinger 2001-2017
</metadata>
<g transform="translate(0.000000,250.000000) scale(0.100000,-0.100000)"
fill="#000000" stroke="none">
<path d="M448 2363 c-24 -28 -46 -75 -52 -116 -3 -20 -8 -53 -11 -72 l-6 -35
-134 0 -135 0 0 -915 0 -915 194 0 193 0 7 -31 c13 -67 7 -96 -25 -123 -38
-32 -73 -42 -102 -28 -16 8 -17 11 -6 11 45 2 64 76 29 111 -23 23 -33 24 -63
9 -30 -16 -37 -28 -37 -65 0 -82 123 -114 191 -48 34 33 41 59 30 118 l-8 46
768 0 768 0 4 -102 3 -103 2 103 2 102 215 0 215 0 0 -31 c0 -29 2 -31 27 -24
15 3 81 17 146 31 l120 24 873 0 874 0 0 -108 c0 -60 2 -111 5 -114 3 -2 66
11 140 31 l135 36 0 77 0 78 340 0 340 0 0 -30 c0 -39 16 -39 25 0 l7 31 146
-3 147 -3 0 -24 c0 -14 5 -26 10 -28 14 -4 963 -133 981 -133 11 0 14 20 14
95 l0 95 950 0 950 0 0 -46 c0 -44 1 -46 24 -40 13 3 31 9 40 12 12 5 16 -5
19 -48 2 -37 4 -27 5 35 2 80 4 87 22 87 11 0 20 -6 20 -14 0 -24 30 -46 61
-46 34 0 64 13 95 41 19 18 50 19 585 21 l564 3 0 275 0 275 -754 3 c-440 1
-757 6 -761 11 -4 8 -1054 141 -1110 141 -18 0 -20 -7 -20 -75 l0 -75 -1660 0
-1660 0 0 60 c0 33 -3 60 -7 60 -5 0 -82 7 -173 15 -91 8 -180 15 -197 15
l-33 0 0 -75 0 -75 -215 0 -214 0 -3 60 c-2 33 -7 60 -13 60 -5 0 -11 -27 -13
-60 l-3 -60 -828 0 -828 0 -11 25 c-16 35 -84 35 -136 0 l-37 -25 -314 0 -315
0 0 70 c0 40 -4 70 -10 70 -6 0 -10 -30 -10 -70 l0 -70 -145 0 -145 0 0 58 c0
42 -8 73 -30 120 -16 34 -34 62 -39 62 -31 0 -78 -109 -83 -192 l-3 -48 -127
0 -128 0 0 355 0 355 184 0 183 0 7 -31 c12 -60 7 -95 -16 -117 -31 -28 -74
-43 -104 -36 l-25 6 30 19 c37 23 42 68 11 99 -41 41 -100 9 -100 -54 0 -75
99 -111 171 -63 49 33 62 66 51 127 l-9 50 768 0 768 0 4 -27 4 -28 2 28 1 27
545 0 545 0 0 -66 c0 -41 4 -63 10 -59 6 3 10 33 10 66 l0 59 219 0 c126 0
221 -4 223 -9 3 -9 304 -41 378 -41 25 0 30 4 30 25 l0 25 255 0 255 0 0 -110
c0 -60 3 -110 8 -110 4 0 50 11 102 25 52 14 112 30 132 36 l38 10 0 74 0 75
808 0 c806 0 807 0 986 -25 223 -31 216 -31 216 0 l0 25 255 0 255 0 0 -25 c0
-30 -50 -22 565 -95 275 -33 515 -61 533 -64 l32 -5 0 95 0 94 124 0 c121 0
125 -1 129 -22 l4 -23 2 23 c1 16 7 22 25 22 13 0 27 -6 29 -12 4 -10 7 -10
14 -1 7 10 161 13 689 15 l679 3 0 275 0 275 -309 5 -309 5 -23 45 c-13 25
-27 54 -31 65 -5 13 -9 -2 -11 -47 l-3 -68 -214 0 -214 0 -4 33 -4 32 -1 -32
-2 -33 -1514 0 -1515 0 -6 21 c-11 33 -52 43 -101 24 -23 -9 -48 -23 -54 -31
-9 -10 -35 -14 -90 -14 -69 0 -78 2 -83 20 -6 24 -46 41 -78 33 -13 -3 -38
-16 -56 -29 -30 -23 -39 -24 -197 -24 l-164 0 29 30 c37 37 35 69 -4 88 -57
27 -157 -37 -157 -100 0 -15 -10 -18 -66 -18 l-67 0 26 20 c73 58 18 132 -70
95 -52 -22 -72 -42 -79 -81 l-6 -34 -644 0 c-566 0 -644 2 -644 15 0 8 -4 15
-10 15 -5 0 -10 -7 -10 -15 0 -13 -36 -15 -264 -15 l-264 0 29 30 c37 37 35
69 -4 88 -25 12 -35 12 -73 -3 -50 -19 -74 -47 -74 -87 l0 -28 -419 0 -420 0
-4 23 -4 22 -2 -22 c-1 -17 -7 -23 -26 -23 -14 0 -25 5 -25 12 0 9 -3 9 -12 0
-8 -8 -56 -12 -149 -12 -130 0 -137 1 -153 23 l-17 22 6 -22 c6 -22 3 -23 -44
-23 -49 0 -51 1 -51 28 0 26 3 28 29 24 29 -4 111 32 111 49 0 4 17 9 38 11
40 3 47 21 11 26 -13 2 -31 15 -42 29 -17 22 -26 24 -60 20 -22 -3 -53 -15
-68 -26 -16 -12 -42 -21 -59 -21 -20 0 -30 -5 -30 -15 0 -9 9 -15 23 -15 21 0
22 -4 19 -55 l-4 -55 -344 0 c-339 0 -344 0 -344 20 0 11 7 23 15 26 8 4 15
17 15 30 0 15 -6 24 -15 24 -10 0 -15 12 -17 38 -1 37 -1 37 -7 -8 -5 -36 -10
-46 -28 -48 -19 -3 -22 2 -26 35 l-4 38 -1 -41 c-1 -27 -7 -44 -17 -48 -8 -3
-15 -17 -15 -31 0 -15 4 -24 10 -20 6 3 10 1 10 -4 0 -7 -30 -11 -79 -11 l-79
0 -4 68 c-3 45 -12 83 -29 116 -28 57 -39 64 -61 39z m-58 -277 c0 -27 -7 -39
-29 -55 -25 -18 -44 -21 -130 -21 l-101 0 0 48 c0 27 3 52 7 55 3 4 62 7 130
7 l123 0 0 -34z m318 6 c2 -13 -3 -25 -12 -28 -9 -3 -16 -17 -16 -30 0 -24 -1
-24 -106 -24 l-106 0 16 23 c9 12 24 37 33 55 l17 33 86 -3 c80 -3 85 -4 88
-26z m766 -30 l1 -52 -247 0 c-214 0 -248 2 -248 15 0 8 -6 15 -14 15 -10 0
-16 13 -19 38 l-4 37 -1 -41 c-1 -28 -7 -44 -18 -48 -29 -11 -34 -6 -34 29 0
19 -4 35 -10 35 -5 0 -10 -18 -10 -40 l0 -40 -45 0 c-34 0 -45 4 -45 15 0 9 7
18 15 21 8 4 15 17 15 30 0 15 -6 24 -15 24 -8 0 -15 5 -15 10 0 7 117 9 346
8 l346 -3 2 -53z m326 3 l0 -55 -83 0 -83 0 0 55 0 55 83 0 83 0 0 -55z m719
26 c-17 -17 -29 -40 -29 -55 l0 -26 -130 0 c-73 0 -130 4 -130 9 0 20 -33 41
-64 41 -19 0 -49 -11 -70 -25 -47 -32 -116 -35 -116 -6 0 10 7 21 15 25 8 3
15 17 15 30 0 18 -4 24 -15 20 -8 -4 -15 -1 -15 5 0 8 83 11 284 11 l284 0
-29 -29z m299 -28 l3 -53 -102 0 -102 0 28 21 c22 18 26 28 23 56 l-4 34 75
-3 76 -3 3 -52z m652 2 l0 -55 -315 0 -315 0 0 55 0 55 315 0 315 0 0 -55z
m840 0 l0 -55 -175 0 c-121 0 -175 3 -175 11 0 6 -7 8 -16 5 -61 -23 -64 -22
-66 35 l-2 54 -3 -52 -4 -53 -40 0 c-21 0 -39 4 -39 9 0 20 -33 41 -64 41 -19
0 -49 -11 -70 -25 -20 -14 -48 -25 -61 -25 -23 0 -25 4 -25 41 0 38 -2 41 -22
36 -13 -2 -31 -8 -40 -12 -15 -6 -18 -2 -18 19 l0 26 410 0 410 0 0 -55z m470
0 l0 -55 -220 0 -220 0 0 55 0 55 220 0 220 0 0 -55z m260 0 l0 -55 -115 0
-115 0 0 55 0 55 115 0 115 0 0 -55z m450 0 l0 -55 -215 0 -215 0 0 55 0 55
215 0 215 0 0 -55z m330 0 l0 -55 -91 0 c-75 0 -94 3 -106 18 -14 16 -14 16
-9 0 5 -16 -2 -18 -49 -18 -52 0 -55 1 -55 25 0 22 4 25 35 25 39 0 84 19 104
44 10 12 33 16 92 16 l79 0 0 -55z m357 27 c-16 -16 -27 -39 -27 -55 l0 -27
-155 0 -155 0 0 25 c0 22 4 25 35 25 39 0 84 19 104 44 11 13 35 16 119 16
l106 0 -27 -28z m933 -27 l0 -55 -225 0 c-191 0 -225 2 -225 15 0 40 -81 46
-134 10 -34 -23 -46 -25 -143 -25 l-107 0 28 29 c22 23 27 36 22 55 l-6 26
395 0 395 0 0 -55z m1918 -2 l3 -53 -530 0 -531 0 0 35 c0 19 -4 35 -10 35 -5
0 -10 -16 -10 -35 l0 -35 -130 0 c-88 0 -130 4 -130 11 0 6 -7 8 -16 5 -61
-23 -64 -22 -64 33 0 28 -4 51 -10 51 -5 0 -10 -22 -10 -50 l0 -50 -34 0 c-25
0 -38 6 -50 25 -22 33 -67 33 -125 0 -38 -22 -55 -25 -142 -25 l-99 0 0 55 0
55 943 -2 942 -3 3 -52z m442 2 l0 -55 -215 0 -215 0 0 55 0 55 215 0 215 0 0
-55z m590 0 l0 -55 -225 0 c-208 0 -225 1 -225 18 0 9 -9 32 -20 50 -11 18
-20 35 -20 37 0 3 110 5 245 5 l245 0 0 -55z m-9785 -131 c-19 -25 -35 -50
-35 -55 0 -6 -23 -9 -52 -7 l-53 3 -3 53 -3 52 90 0 91 0 -35 -46z m436 24 l2
-23 4 23 c3 15 11 22 29 22 13 0 24 -6 25 -12 0 -10 2 -10 6 0 7 17 61 15 79
-2 8 -8 14 -33 14 -55 l0 -41 -209 0 -209 0 -11 50 c-6 28 -11 53 -11 55 0 3
63 5 140 5 138 0 140 0 141 -22z m763 -30 l-2 -53 -246 -3 c-214 -2 -246 0
-246 13 0 8 -7 15 -15 15 -11 0 -15 11 -15 40 l0 40 263 0 262 0 -1 -52z m326
-3 l0 -55 -141 0 c-155 0 -149 -4 -90 68 l35 42 98 0 98 0 0 -55z m690 0 l0
-55 -215 0 -215 0 0 30 c0 27 2 29 29 24 31 -7 121 29 121 47 0 5 62 9 140 9
l140 0 0 -55z m328 3 l-3 -53 -152 -3 -153 -3 0 56 0 55 156 0 155 0 -3 -52z
m357 27 c-16 -15 -25 -36 -25 -55 l0 -30 -155 0 -155 0 0 55 0 55 180 0 179 0
-24 -25z m295 -21 c0 -38 3 -45 16 -40 50 19 64 18 64 -3 0 -20 -4 -21 -139
-21 l-139 0 30 30 c22 22 29 37 25 55 -4 25 -3 25 69 25 l74 0 0 -46z m400 -9
l0 -55 -120 0 -120 0 0 29 c0 24 3 28 19 24 27 -7 85 14 106 37 13 15 31 20
67 20 l48 0 0 -55z m440 0 l0 -55 -92 0 -92 0 27 28 c16 16 27 39 27 55 0 27
1 27 65 27 l65 0 0 -55z m470 0 l0 -55 -35 0 c-28 0 -35 4 -35 20 0 47 -103
47 -145 0 -16 -18 -31 -20 -122 -20 l-103 0 0 55 0 55 220 0 220 0 0 -55z
m260 0 l0 -55 -115 0 -115 0 0 55 0 55 115 0 115 0 0 -55z m450 0 l0 -55 -215
0 -215 0 0 55 0 55 215 0 215 0 0 -55z m328 3 l-3 -53 -85 -3 -85 -3 3 56 4
55 84 0 85 0 -3 -52z m332 -3 l0 -55 -155 0 -155 0 0 55 0 55 155 0 155 0 0
-55z m320 0 l0 -55 -155 0 -155 0 0 55 0 55 155 0 155 0 0 -55z m356 24 c-14
-17 -26 -41 -26 -55 l0 -24 -155 0 -155 0 0 31 c0 29 2 30 30 24 30 -7 111 22
124 44 5 7 45 11 107 11 l101 0 -26 -31z m284 -24 l0 -55 -92 0 c-90 1 -92 1
-72 18 29 24 45 57 38 76 -5 14 4 16 60 16 l66 0 0 -55z m220 0 l0 -55 -95 0
-95 0 0 55 0 55 95 0 95 0 0 -55z m260 0 l0 -55 -120 0 -120 0 0 28 c0 25 3
27 43 27 33 0 53 7 78 27 24 20 46 27 77 28 l42 0 0 -55z m1438 3 l-3 -53
-117 -3 c-101 -2 -118 0 -118 13 0 8 -4 15 -10 15 -5 0 -10 -7 -10 -15 0 -18
-50 -21 -51 -2 0 10 -2 10 -6 0 -3 -10 -55 -13 -209 -13 -173 0 -204 2 -204
15 0 8 -11 22 -25 31 -30 19 -70 12 -120 -22 -48 -32 -71 -31 -83 6 -12 34
-54 50 -84 31 -16 -10 -18 -8 -18 19 l0 30 531 0 530 0 -3 -52z m442 -3 l0
-55 -215 0 -215 0 0 55 0 55 215 0 215 0 0 -55z m117 20 c-7 -42 9 -38 18 5
l7 30 224 0 224 0 0 -55 0 -55 -141 0 c-153 0 -147 -3 -124 52 7 17 5 17 -21
3 -40 -20 -51 -19 -50 8 1 17 -5 23 -27 25 -32 4 -46 -20 -26 -44 10 -13 24
-15 61 -11 46 6 48 5 38 -14 -10 -18 -20 -19 -148 -17 l-137 3 -3 53 -3 52 57
0 57 0 -6 -35z m-8737 -116 c0 -11 5 -17 10 -14 6 4 10 -8 10 -29 0 -20 5 -36
10 -36 6 0 10 18 10 40 0 22 4 40 9 40 5 0 16 3 25 6 13 5 16 -2 18 -37 l1
-44 6 45 6 45 257 3 257 2 3 -27 c4 -33 21 -34 28 -1 6 23 9 23 153 26 l147 3
0 -56 0 -55 -600 0 c-578 0 -600 1 -600 19 0 10 -11 35 -25 55 l-24 36 149 0
c145 0 150 -1 150 -21z m1060 -1 l9 -23 0 23 c1 17 7 22 26 22 14 0 25 -6 26
-12 0 -10 2 -10 6 0 2 6 20 12 39 12 l34 0 0 -55 0 -55 -110 0 -110 0 0 55 0
55 35 0 c28 0 38 -5 45 -22z m580 -33 l0 -55 -215 0 -215 0 0 55 0 55 215 0
215 0 0 -55z m328 28 c-3 -27 -8 -29 -103 -50 -55 -13 -124 -26 -152 -29 l-53
-7 0 57 0 56 156 0 155 0 -3 -27z m332 -28 l0 -55 -155 0 -155 0 0 55 0 55
155 0 155 0 0 -55z m400 35 c0 -11 5 -20 10 -20 6 0 10 9 10 20 0 13 7 20 20
20 18 0 20 -7 20 -55 l0 -55 -220 0 -220 0 0 55 0 55 190 0 c183 0 190 -1 190
-20z m320 9 c0 -11 25 -8 64 7 13 5 16 -3 18 -47 l2 -54 3 53 c3 37 8 52 19
52 10 0 14 -14 14 -55 l0 -55 -180 0 -180 0 0 55 0 55 120 0 c81 0 120 -4 120
-11z m440 -44 l0 -55 -145 0 -145 0 0 55 0 55 145 0 145 0 0 -55z m220 0 l0
-55 -95 0 -95 0 0 55 0 55 95 0 95 0 0 -55z m250 0 l0 -55 -115 0 -115 0 0 25
c0 22 4 25 35 25 39 0 84 19 104 44 8 10 29 16 52 16 l39 0 0 -55z m260 0 l0
-55 -115 0 -115 0 0 55 0 55 115 0 115 0 0 -55z m450 0 l0 -55 -215 0 -215 0
0 55 0 55 215 0 215 0 0 -55z m328 -2 l3 -53 -141 0 c-156 0 -150 -4 -92 68
l35 43 96 -3 96 -3 3 -52z m332 2 l0 -55 -155 0 -155 0 0 55 0 55 155 0 155 0
0 -55z m320 0 l0 -55 -155 0 -155 0 0 55 0 55 155 0 155 0 0 -55z m330 0 l0
-55 -155 0 -155 0 0 55 0 55 155 0 155 0 0 -55z m310 0 l0 -55 -145 0 -145 0
0 55 0 55 145 0 145 0 0 -55z m220 0 l0 -55 -95 0 -95 0 0 55 0 55 95 0 95 0
0 -55z m260 44 c0 -11 35 -8 73 6 15 6 17 0 19 -46 l2 -54 3 53 c3 37 8 52 19
52 10 0 14 -14 14 -55 l0 -55 -185 0 -185 0 0 55 0 55 120 0 c82 0 120 -4 120
-11z m360 -29 c0 -24 5 -40 12 -40 6 0 33 18 59 40 29 24 58 40 73 40 25 0 26
-3 26 -55 l0 -55 -190 0 -190 0 0 55 0 55 105 0 105 0 0 -40z m527 12 c-16
-16 -27 -39 -27 -55 l0 -27 -160 0 -160 0 0 28 c0 26 2 27 43 24 34 -3 49 2
82 27 38 28 44 30 144 30 l105 1 -27 -28z m553 -6 l0 -33 -47 4 c-40 4 -55 0
-86 -21 -23 -16 -52 -26 -72 -26 -31 0 -35 3 -35 25 0 14 5 25 10 25 6 0 10
12 10 26 0 14 -4 23 -10 19 -5 -3 -10 -1 -10 4 0 7 42 11 120 11 l120 0 0 -34z
m295 9 c-25 -24 -29 -35 -26 -67 2 -16 -10 -18 -128 -18 l-131 0 0 55 0 55
155 0 154 0 -24 -25z m425 20 c0 -3 -11 -28 -25 -55 l-25 -50 -142 0 c-132 0
-141 1 -120 16 21 15 59 74 47 74 -4 0 -3 5 0 10 6 10 265 15 265 5z m310 -50
l0 -55 -165 0 c-91 0 -165 3 -165 6 0 4 8 28 17 55 l18 49 147 0 148 0 0 -55z
m-9814 -110 c15 -20 45 -47 68 -60 l41 -25 -110 2 -110 3 -3 44 c-5 62 1 71
47 71 34 0 44 -5 67 -35z m104 19 c8 -8 23 -20 34 -26 17 -9 19 -8 9 3 -24 25
-15 39 27 39 44 0 56 -13 62 -70 l3 -35 -52 -3 c-64 -4 -126 25 -148 68 -8 16
-15 31 -15 35 0 12 69 4 80 -11z m1450 -44 l0 -60 -645 0 c-355 0 -645 2 -645
5 0 3 18 21 40 41 21 19 42 44 45 55 6 18 23 19 606 19 l599 0 0 -60z m245 0
l0 -55 -107 -3 -108 -3 0 61 0 61 108 -3 107 -3 0 -55z m445 30 c0 -16 2 -30
3 -30 2 0 68 14 146 30 134 28 155 30 324 28 l182 -3 0 -55 0 -55 -542 -3
-543 -2 0 60 0 60 215 0 215 0 0 -30z m1115 -30 l0 -55 -217 -3 -218 -2 0 60
0 60 218 -2 217 -3 0 -55z m385 0 l0 -60 -42 1 c-24 0 -104 6 -178 12 l-135
12 -3 48 -3 47 180 0 181 0 0 -60z m320 0 l0 -60 -145 0 -145 0 0 60 0 60 145
0 145 0 0 -60z m220 0 l0 -60 -95 0 -95 0 0 60 0 60 95 0 95 0 0 -60z m250 0
l0 -60 -115 0 -115 0 0 53 c0 30 3 57 7 60 3 4 55 7 115 7 l108 0 0 -60z m710
30 c0 -16 5 -30 10 -30 6 0 10 8 10 19 0 37 22 42 166 39 l139 -3 3 -27 c2
-16 6 -28 10 -28 24 0 376 -51 380 -55 3 -3 -310 -5 -696 -5 l-702 0 0 60 0
60 340 0 340 0 0 -30z m980 -10 c0 -41 0 -41 -32 -36 -46 8 -257 36 -268 36
-6 0 -10 9 -10 20 0 19 7 20 155 20 l155 0 0 -40z m330 -20 c0 -70 13 -66
-150 -45 -167 22 -160 20 -160 59 0 18 3 36 7 39 3 4 73 7 155 7 l148 0 0 -60z
m310 0 l0 -61 -142 3 -143 3 -3 44 c-5 73 -9 71 148 71 l140 0 0 -60z m220 0
l0 -60 -95 0 -95 0 0 53 c0 30 3 57 7 60 3 4 46 7 95 7 l88 0 0 -60z m390 0
l0 -60 -182 2 -183 3 -3 44 c-5 74 -13 71 188 71 l180 0 0 -60z m395 0 l0 -55
-187 -3 -188 -2 0 53 c0 30 3 57 7 61 4 3 88 5 187 4 l181 -3 0 -55z m330 0
l0 -55 -157 -3 -158 -3 0 61 0 61 158 -3 157 -3 0 -55z m263 28 c2 -20 -1 -28
-12 -28 -11 0 -16 -9 -16 -30 l0 -30 -110 0 -110 0 0 53 c0 30 3 57 7 61 4 3
59 5 122 4 l116 -3 3 -27z m144 10 c2 -13 15 -29 31 -36 34 -16 82 -3 126 34
l29 24 509 -2 508 -3 0 -55 0 -55 -632 -3 c-622 -2 -633 -2 -633 17 0 11 5 23
10 26 6 3 10 17 10 31 0 14 -4 22 -10 19 -5 -3 -10 1 -10 9 0 11 9 16 29 16
23 0 30 -5 33 -22z m-732 -152 c0 -19 -3 -37 -7 -39 -5 -3 -89 5 -188 16 -153
19 -180 25 -183 40 -3 16 11 17 187 17 l191 0 0 -34z m330 -27 l0 -61 -32 5
c-18 3 -78 11 -133 17 -160 17 -155 15 -155 61 l0 39 160 0 160 0 0 -61z
m-4415 -582 l130 -12 3 -27 3 -28 -185 0 -186 0 0 40 0 40 53 -1 c28 0 111 -6
182 -12z m3700 -7 c88 -11 161 -20 163 -20 1 0 2 -9 2 -20 0 -19 -7 -20 -185
-20 l-185 0 0 40 c0 48 -13 47 205 20z m-7345 -114 c0 -26 -7 -41 -31 -60 -30
-25 -36 -27 -128 -24 l-96 3 -3 44 c-5 72 -7 71 133 71 l125 0 0 -34z m440
-26 l0 -61 -67 3 -68 3 -4 40 -5 40 -5 -40 -6 -40 -103 -3 c-57 -1 -102 1
-100 5 2 4 17 32 33 60 l30 53 148 0 147 0 0 -60z m643 0 l0 -55 -282 -3
c-154 -1 -281 2 -281 6 0 5 9 17 20 27 12 11 20 31 20 52 l0 33 261 -2 262 -3
0 -55z m325 3 l-3 -58 -85 -3 c-78 -3 -86 -1 -103 20 l-18 23 6 -22 c6 -22 3
-23 -44 -23 -50 0 -51 1 -51 29 0 26 3 29 34 29 36 0 85 21 105 46 10 12 33
16 88 16 l74 0 -3 -57z m1064 36 c-18 -12 -35 -33 -38 -48 -3 -14 -7 -32 -10
-38 -3 -10 -100 -13 -444 -13 -433 0 -440 0 -440 20 0 11 -4 20 -10 20 -5 0
-10 -9 -10 -20 0 -17 -7 -20 -40 -20 l-40 0 0 60 0 60 533 0 532 0 -33 -21z
m458 -39 l0 -60 -180 0 c-99 0 -180 2 -180 5 0 3 10 19 22 35 18 25 20 33 10
55 l-12 25 170 0 170 0 0 -60z m460 0 l0 -60 -155 0 -155 0 0 40 c0 22 -4 40
-10 40 -5 0 -10 -18 -10 -40 l0 -40 -48 0 c-27 0 -51 2 -53 4 -2 2 -2 29 -1
60 l4 56 214 0 214 0 0 -60z m390 -1 l0 -60 -182 3 -183 3 -3 44 c-5 74 -13
71 188 71 l180 0 0 -61z m666 42 c-32 -22 -55 -56 -56 -84 0 -16 -15 -17 -217
-15 l-218 3 -3 58 -3 57 263 0 263 0 -29 -19z m2274 -41 l0 -60 -555 0 c-417
0 -555 3 -555 12 0 22 -33 48 -62 48 -32 0 -78 -21 -97 -44 -10 -12 -32 -16
-87 -16 -70 0 -75 1 -84 25 -17 45 -77 45 -144 0 -35 -24 -43 -25 -186 -25
-83 0 -150 2 -150 5 0 3 10 19 22 35 18 25 20 33 10 55 l-12 25 950 0 950 0 0
-60z m398 3 l-3 -58 -180 0 -180 0 -3 58 -3 57 186 0 186 0 -3 -57z m387 -3
l0 -55 -180 0 -180 0 -3 58 -3 57 183 -2 183 -3 0 -55z m395 0 l0 -60 -185 0
-185 0 0 60 0 60 185 0 185 0 0 -60z m225 47 l100 -12 3 -48 3 -47 -155 0
-156 0 0 60 0 60 53 -1 c28 0 97 -6 152 -12z m955 -47 l0 -60 -212 2 -213 3
-4 30 -4 30 -6 -30 -6 -30 -193 -3 -192 -2 0 60 0 60 415 0 415 0 0 -60z m585
0 l0 -55 -249 -3 c-182 -2 -252 1 -263 10 -16 13 -53 81 -53 98 0 7 89 9 283
8 l282 -3 0 -55z m-9780 -126 c-19 -25 -35 -50 -35 -55 0 -5 -25 -9 -55 -9
l-55 0 0 55 0 55 90 0 90 0 -35 -46z m405 -9 l0 -55 -114 0 c-126 0 -118 -5
-132 73 l-6 37 126 0 126 0 0 -55z m153 43 c4 -10 7 -10 18 0 10 9 88 12 319
12 l305 0 -3 -55 -4 -55 -334 0 c-326 0 -334 0 -334 20 0 11 -12 27 -26 37
-21 13 -32 15 -55 6 -28 -11 -29 -10 -29 18 l0 29 69 0 c46 0 71 -4 74 -12z
m967 -43 l0 -55 -82 0 -83 0 -1 55 0 55 83 0 83 0 0 -55z m745 43 c-30 -16
-55 -50 -55 -75 0 -23 -2 -23 -129 -23 -120 0 -129 1 -134 20 -8 33 -54 44
-103 25 -23 -9 -48 -23 -54 -31 -7 -7 -23 -14 -36 -14 -22 0 -24 4 -24 46 0
38 -3 45 -16 40 -50 -19 -64 -18 -64 3 0 21 1 21 318 21 236 -1 312 -3 297
-12z m275 -43 l0 -55 -97 0 -96 0 22 24 c17 18 22 33 19 55 l-5 31 79 0 78 0
0 -55z m500 0 l0 -55 -240 0 -240 0 0 55 0 55 240 0 240 0 0 -55z m460 20 c0
-33 -1 -34 -27 -24 -30 11 -101 -10 -123 -37 -20 -23 -58 -18 -62 8 -4 32 -52
57 -78 40 -18 -11 -20 -10 -20 18 l0 30 155 0 155 0 0 -35z m390 -20 l0 -55
-160 0 -160 0 0 39 c0 73 -5 71 166 71 l154 0 0 -55z m610 0 l0 -55 -220 0
-220 0 0 55 0 55 220 0 220 0 0 -55z m260 0 l0 -55 -115 0 -115 0 0 55 0 55
115 0 115 0 0 -55z m450 0 l0 -55 -215 0 -215 0 0 55 0 55 215 0 215 0 0 -55z
m328 3 l-3 -53 -89 -3 c-75 -2 -90 0 -103 15 -14 17 -14 17 -9 1 5 -16 -2 -18
-49 -18 -53 0 -55 1 -55 28 0 25 3 27 43 27 33 0 53 7 78 27 30 24 43 27 112
28 l78 0 -3 -52z m363 26 c-22 -18 -31 -35 -31 -55 l0 -29 -155 0 -155 0 0 29
c0 24 3 28 19 24 27 -7 85 14 106 37 16 18 32 20 132 20 l115 0 -31 -26z m929
-29 l0 -55 -224 0 c-215 0 -224 1 -229 20 -12 46 -96 46 -145 0 -18 -17 -35
-20 -126 -20 l-105 0 24 25 c27 26 32 54 13 73 -9 9 77 12 390 12 l402 0 0
-55z m400 20 c0 -33 -1 -34 -27 -24 -30 11 -101 -10 -123 -37 -10 -10 -38 -14
-116 -14 l-104 0 0 55 0 55 185 0 185 0 0 -35z m390 -20 l0 -55 -160 0 -160 0
0 55 0 55 160 0 160 0 0 -55z m390 0 l0 -55 -160 0 -160 0 0 41 c0 24 -4 38
-10 34 -5 -3 -10 -22 -10 -41 0 -24 -5 -34 -15 -34 -12 0 -15 13 -15 55 l0 55
185 0 185 0 0 -55z m330 0 l0 -55 -155 0 -155 0 0 55 0 55 155 0 155 0 0 -55z
m410 0 l0 -55 -195 0 -195 0 0 55 0 55 195 0 195 0 0 -55z m440 0 l0 -55 -215
0 -215 0 0 55 0 55 215 0 215 0 0 -55z m590 0 l0 -55 -141 0 c-153 0 -147 -3
-123 54 7 19 7 19 -16 3 -34 -24 -57 -22 -56 6 1 17 -5 23 -27 25 -32 4 -46
-20 -26 -44 10 -12 25 -15 61 -12 43 5 46 4 37 -14 -8 -15 -22 -18 -84 -18
-65 0 -75 2 -75 18 0 9 -9 32 -20 50 -11 18 -20 35 -20 37 0 3 110 5 245 5
l245 0 0 -55z m-9380 -121 l0 -46 43 33 c23 18 47 38 53 46 9 11 77 13 354 11
l342 -3 2 -53 1 -52 -437 0 c-420 0 -438 1 -438 19 0 10 -11 35 -25 55 l-24
36 64 0 65 0 0 -46z m1120 -9 l0 -55 -135 0 c-151 0 -146 -4 -85 68 l35 42 93
0 92 0 0 -55z m690 0 l0 -55 -215 0 -215 0 0 28 c0 26 2 27 39 24 40 -4 87 14
110 42 11 13 38 16 147 16 l134 0 0 -55z m328 -2 l3 -53 -155 0 -156 0 0 55 0
56 153 -3 152 -3 3 -52z m382 40 c-35 -24 -49 -44 -50 -70 0 -23 -1 -23 -155
-23 l-155 0 0 55 0 55 192 0 c184 0 191 -1 168 -17z m252 -28 l3 -45 57 45
c61 48 98 58 98 27 0 -57 112 -55 159 2 8 9 26 16 42 16 28 0 29 -1 29 -55 l0
-55 -275 0 -276 0 23 33 c13 17 26 34 31 35 4 2 7 12 7 23 0 16 7 19 49 19
l50 0 3 -45z m1328 -10 l0 -55 -33 0 c-24 0 -35 6 -42 23 -15 34 -80 35 -128
2 -34 -23 -47 -25 -137 -25 l-100 0 0 55 0 55 220 0 220 0 0 -55z m260 0 l0
-55 -115 0 -115 0 0 55 0 55 115 0 115 0 0 -55z m450 0 l0 -55 -215 0 -215 0
0 55 0 55 215 0 215 0 0 -55z m328 -2 l3 -53 -85 0 -84 0 -4 55 -3 56 85 -3
85 -3 3 -52z m332 2 l0 -55 -155 0 -155 0 0 55 0 55 155 0 155 0 0 -55z m322
0 l-4 -55 -154 0 -154 0 0 55 0 55 158 0 157 0 -3 -55z m364 21 c-20 -18 -36
-43 -36 -55 0 -21 -3 -21 -155 -21 l-155 0 0 28 c0 26 2 27 39 24 40 -4 87 14
110 42 11 13 36 16 123 16 l109 0 -35 -34z m494 20 c0 -25 30 -46 67 -46 36 0
103 33 103 51 0 6 15 9 33 7 31 -3 32 -4 35 -55 l3 -53 -215 0 -216 0 0 55 0
55 95 0 c76 0 95 -3 95 -14z m960 -20 l0 -34 -42 5 c-35 4 -50 0 -81 -21 -35
-24 -105 -37 -93 -18 3 5 -2 19 -11 31 -12 19 -23 22 -54 19 -37 -3 -39 -2
-39 24 l0 28 160 0 160 0 0 -34z m330 -21 l0 -55 -157 0 -158 0 3 55 4 55 154
0 154 0 0 -55z m410 0 l0 -55 -150 0 c-136 0 -150 2 -151 18 -1 16 -2 16 -6 0
-3 -13 -15 -18 -44 -18 l-39 0 0 55 0 55 195 0 195 0 0 -55z m440 0 l0 -55
-215 0 -215 0 0 55 0 55 215 0 215 0 0 -55z m117 13 l-6 -43 14 30 c8 17 14
36 15 43 0 8 21 12 70 12 39 0 70 -2 70 -5 0 -3 -11 -28 -25 -55 l-25 -50
-110 0 -110 0 0 48 c0 27 3 52 7 55 3 4 29 7 56 7 l50 0 -6 -42z m473 -13 l0
-55 -165 0 c-93 0 -165 4 -165 9 0 5 9 30 20 55 l19 46 146 0 145 0 0 -55z
m-9816 -111 c10 -14 38 -39 64 -55 l47 -30 -110 3 -110 3 -3 53 -3 52 49 0
c42 0 52 -4 66 -26z m121 6 c10 -11 23 -20 29 -20 6 0 5 5 -2 12 -21 21 -13
28 32 28 43 0 44 -1 54 -42 6 -24 7 -47 3 -51 -15 -15 -98 -9 -135 8 -32 15
-76 61 -76 79 0 3 17 6 38 6 26 0 45 -7 57 -20z m1110 -2 c0 -31 19 -35 25 -6
6 23 9 23 153 26 l147 3 0 -56 0 -55 -645 0 c-599 0 -692 4 -625 25 12 4 32
24 47 46 l26 39 436 0 437 0 -1 -22z m515 7 c0 -8 5 -15 10 -15 6 0 10 7 10
15 0 8 9 15 20 15 18 0 20 -7 20 -55 l0 -55 -110 0 -110 0 0 55 0 55 80 0 c64
0 80 -3 80 -15z m500 -40 l0 -55 -215 0 -215 0 0 55 0 55 215 0 215 0 0 -55z
m330 30 c0 -31 5 -28 -145 -60 -170 -36 -165 -37 -165 30 l0 55 155 0 155 0 0
-25z m1020 13 c0 -9 3 -9 12 0 9 9 75 12 235 12 l223 0 0 -55 0 -55 -735 0
-735 0 0 55 0 55 500 0 c382 0 500 -3 500 -12z m690 -43 l0 -55 -95 0 -95 0 0
55 0 55 95 0 95 0 0 -55z m250 0 l0 -55 -115 0 -115 0 0 30 c0 27 3 30 24 24
25 -6 108 25 120 45 4 6 25 11 47 11 l39 0 0 -55z m260 0 l0 -55 -115 0 -115
0 0 55 0 55 115 0 115 0 0 -55z m450 0 l0 -55 -215 0 -215 0 0 55 0 55 215 0
215 0 0 -55z m330 5 c0 -32 -5 -52 -13 -56 -7 -2 -71 -3 -141 -2 l-129 3 44
52 44 53 98 0 97 0 0 -50z m330 -5 l0 -55 -155 0 -155 0 0 55 0 55 155 0 155
0 0 -55z m320 0 l0 -55 -155 0 -155 0 0 55 0 55 155 0 155 0 0 -55z m330 0 l0
-55 -155 0 -155 0 0 55 0 55 155 0 155 0 0 -55z m310 0 l0 -56 -142 3 -143 3
-3 53 -3 52 145 0 146 0 0 -55z m460 43 c0 -9 3 -9 12 0 8 8 65 12 190 12
l178 0 0 -40 c0 -22 3 -40 7 -40 3 0 30 18 59 40 59 45 104 53 104 20 0 -47
103 -47 145 0 16 18 31 20 132 20 l115 0 -31 -26 c-22 -18 -31 -35 -31 -55 l0
-29 -655 0 -655 0 0 55 0 55 215 0 c161 0 215 -3 215 -12z m1460 -22 c0 -35 0
-35 -31 -24 -23 8 -39 7 -74 -6 -24 -10 -49 -24 -55 -32 -7 -7 -23 -14 -36
-14 -22 0 -24 4 -24 46 0 38 -3 45 -16 40 -50 -19 -64 -18 -64 3 0 20 4 21
150 21 l150 0 0 -34z m301 8 c-22 -18 -31 -35 -31 -55 l0 -29 -130 0 -130 0 0
55 0 55 161 0 161 0 -31 -26z m727 -26 l-3 -53 -314 -3 -313 -2 26 31 c14 17
26 41 26 55 l0 24 291 0 290 0 -3 -52z m-3588 -119 c0 -38 -2 -41 -22 -36 -13
3 -83 13 -155 22 -117 16 -133 20 -133 36 0 18 10 19 155 19 l155 0 0 -41z
m330 -19 c0 -70 13 -66 -142 -45 -178 24 -168 20 -168 66 l0 39 155 0 155 0 0
-60z"/>
</g>
</svg>
